<?xml version="1.0" encoding="UTF-8" standalone="no"?> <svg xmlns="http://www.w3.org/2000/svg" viewBox="0 0 60 60"><defs><style>.cls-1,.cls-2{fill:none;}.cls-2,.cls-3{stroke:#6b400d;stroke-linecap:round;stroke-linejoin:round;stroke-width:2px;}.cls-3{fill:#f2f0e7;}.cls-4{fill:#ffc824;}</style></defs><title>Location</title><g id="图层_2" data-name="图层 2"><g id="Icons"><g id="Location"><rect class="cls-1" width="60" height="60"/><path class="cls-2" d="M30,46.67S17.5,32.74,17.5,25.83a12.5,12.5,0,0,1,25,0c0,3.43-3.08,8.6-6.19,12.92"/><line class="cls-3" x1="22.8" y1="46.67" x2="37.2" y2="46.67"/><path class="cls-4" d="M30,17.5a8.34,8.34,0,1,0,8.33,8.33A8.33,8.33,0,0,0,30,17.5Zm0,12.18a3.85,3.85,0,1,1,3.85-3.85A3.85,3.85,0,0,1,30,29.68Z"/><path class="cls-2" d="M30,22a3.85,3.85,0,1,1-3.85,3.84"/></g></g></g></svg>