<?xml version="1.0" encoding="UTF-8" standalone="no"?> <svg width="64" height="64" viewBox="0 0 64 64" fill="none" xmlns="http://www.w3.org/2000/svg">
<path d="M56.0001 34.86C54.792 33.4685 53.496 32.1558 52.1201 30.93C50.1167 29.1326 48.0026 27.4626 45.7901 25.93C44.4201 25 43.0001 24 41.3701 23C40.1901 22.29 39.0401 21.63 37.9301 21C36.8201 20.37 35.6401 19.79 34.4001 19.18C32.7001 18.37 31.1301 17.67 29.6001 17.05C27.1063 16.0342 24.5513 15.1759 21.9501 14.48C20.1692 13.9912 18.3588 13.6171 16.5301 13.36C10.0501 12.47 5.53006 13.65 3.93006 16.68C0.600056 22.89 10.3301 34.38 26.0701 42.92C33.4301 46.92 40.9501 49.62 47.2301 50.52C48.614 50.726 50.0109 50.833 51.4101 50.84C55.7601 50.84 58.7801 49.6 60.0701 47.23C61.7201 44.2 60.2701 39.8 56.0001 34.86Z" fill="#BF530A"/>
<path d="M56.0001 34.86C54.7889 33.4681 53.4895 32.1554 52.1101 30.93C51.9976 30.8305 51.8641 30.7576 51.7195 30.7168C51.575 30.676 51.4231 30.6683 51.2751 30.6942C51.1272 30.7202 50.987 30.7791 50.8649 30.8667C50.7429 30.9542 50.6421 31.0681 50.5701 31.2L47.3901 37.06C46.9558 37.8584 46.8561 38.7966 47.113 39.6684C47.3699 40.5403 47.9623 41.2746 48.7601 41.71L49.0501 41.87C49.5475 42.1397 50.1044 42.2806 50.6701 42.28C51.2855 42.2757 51.8884 42.1064 52.4161 41.7898C52.9437 41.4732 53.3768 41.0209 53.6701 40.48L56.1201 36C56.2194 35.8206 56.2612 35.615 56.2397 35.4111C56.2182 35.2072 56.1346 35.0148 56.0001 34.86Z" fill="#F56500"/>
<path d="M41.38 23.0499C41.264 22.9794 41.1349 22.9332 41.0006 22.9142C40.8662 22.8951 40.7293 22.9037 40.5984 22.9392C40.4674 22.9748 40.345 23.0366 40.2387 23.121C40.1324 23.2053 40.0444 23.3105 39.98 23.4299L35.11 32.4299C34.6972 33.2188 34.6083 34.1376 34.8623 34.991C35.1163 35.8444 35.693 36.5651 36.47 36.9999L36.77 37.1599C37.2695 37.4343 37.83 37.5788 38.4 37.5799C39.0145 37.5777 39.6172 37.4104 40.1449 37.0955C40.6727 36.7806 41.1062 36.3297 41.4 35.7899L46.07 27.1799C46.1878 26.9632 46.2213 26.7105 46.164 26.4705C46.1068 26.2306 45.9629 26.0202 45.76 25.8799C44.42 24.9999 43 23.9999 41.38 23.0499Z" fill="#F56500"/>
<path d="M34.91 19.8601C34.8677 19.7317 34.7998 19.6132 34.7104 19.5118C34.621 19.4104 34.512 19.3281 34.39 19.2701C32.69 18.4601 31.12 17.76 29.59 17.14C29.3626 17.049 29.1098 17.0445 28.8794 17.1275C28.649 17.2104 28.4571 17.375 28.34 17.5901L23.67 26.2001C23.236 26.9912 23.1324 27.9217 23.3815 28.7889C23.6306 29.6562 24.2123 30.3898 25 30.8301L25.3 30.9901C25.821 31.273 26.4072 31.4144 27 31.4001C27.6145 31.3978 28.2172 31.2305 28.7449 30.9156C29.2727 30.6007 29.7061 30.1498 30 29.6101L34.87 20.6101C34.9802 20.3747 34.9946 20.1058 34.91 19.8601V19.8601Z" fill="#F56500"/>
<path d="M21.9401 14.5601C20.1592 14.0712 18.3489 13.6971 16.5201 13.4401C16.3215 13.4153 16.1201 13.4506 15.9418 13.5415C15.7635 13.6325 15.6166 13.7748 15.5201 13.9501L13.0901 18.4301C12.6557 19.2285 12.5561 20.1667 12.8129 21.0386C13.0698 21.9104 13.6622 22.6447 14.4601 23.0801L14.7501 23.2401C15.1459 23.4542 15.58 23.588 16.0276 23.634C16.4752 23.68 16.9275 23.6372 17.3586 23.5081C17.7896 23.3789 18.1909 23.166 18.5395 22.8815C18.8882 22.597 19.1772 22.2465 19.3901 21.8501L22.5601 16.0001C22.6316 15.8674 22.6722 15.7202 22.6789 15.5695C22.6855 15.4189 22.6579 15.2687 22.5983 15.1302C22.5387 14.9917 22.4485 14.8684 22.3345 14.7697C22.2205 14.671 22.0857 14.5993 21.9401 14.5601V14.5601Z" fill="#F56500"/>
</svg>
