<?xml version="1.0" encoding="UTF-8" standalone="no"?> <svg xmlns="http://www.w3.org/2000/svg" viewBox="0 0 64 64"><defs><style>.cls-1{fill:#cfd8dc;stroke:#cfd8dc;}.cls-1,.cls-2,.cls-3,.cls-4,.cls-5{stroke-linecap:round;stroke-linejoin:round;stroke-width:2px;}.cls-2,.cls-9{fill:#4f4f4f;}.cls-2,.cls-5{stroke:#4f4f4f;}.cls-3{fill:#a1b6ff;stroke:#a1b6ff;}.cls-4{fill:#5b3b63;stroke:#5b3b63;opacity:0.1;}.cls-5{fill:none;}.cls-6{fill:#6989ff;}.cls-7{fill:#45d821;}.cls-8{fill:#ff4931;}.cls-10{fill:#aaa;}</style></defs><title>camera-back</title><g id="camera-back"><rect class="cls-1" x="48" y="18" width="7" height="3"/><path class="cls-2" d="M57.92,21H42.11L41,16H23l-1.11,5H6.08A3.08,3.08,0,0,0,3,24.08V53.92A3.08,3.08,0,0,0,6.08,57H57.92A3.08,3.08,0,0,0,61,53.92V24.08A3.08,3.08,0,0,0,57.92,21Z"/><rect class="cls-3" x="8" y="29" width="30" height="23"/><polygon class="cls-4" points="38 52 8 52 38 29 38 52"/><path class="cls-5" d="M17.86,43.07A7,7,0,0,0,23,45a7,7,0,0,0,5.1-1.9"/><circle class="cls-6" cx="13" cy="41" r="2"/><circle class="cls-7" cx="9.5" cy="24.5" r="1.5"/><circle class="cls-8" cx="13.5" cy="24.5" r="1.5"/><circle class="cls-6" cx="33" cy="41" r="2"/><circle class="cls-9" cx="31.5" cy="37.5" r="1.5"/><circle class="cls-9" cx="14.5" cy="37.5" r="1.5"/><circle class="cls-10" cx="49" cy="44" r="6"/><line class="cls-5" x1="49" y1="41" x2="49" y2="47"/><line class="cls-5" x1="46" y1="44" x2="52" y2="44"/><path class="cls-10" d="M36.75,22H27.25a1,1,0,0,1-.95-1.22l.51-2a1,1,0,0,1,.95-.74h8.47a1,1,0,0,1,.95.74l.51,2A1,1,0,0,1,36.75,22Z"/></g></svg>